<svg version="1.1" id="Layer_1" xmlns="http://www.w3.org/2000/svg" xmlns:xlink="http://www.w3.org/1999/xlink" x="0px" y="0px"
	 width="100%" viewBox="0 0 496 496" enable-background="new 0 0 496 496" xml:space="preserve">
<path fill="#000000" opacity="1.000000" stroke="none" 
	d="
M335.000000,497.000000 
	C223.333359,497.000000 112.166718,497.000000 1.000060,497.000000 
	C1.000040,331.666718 1.000040,166.333466 1.000020,1.000148 
	C166.333237,1.000099 331.666473,1.000099 496.999756,1.000049 
	C496.999847,166.333191 496.999847,331.666382 496.999939,496.999786 
	C443.166656,497.000000 389.333344,497.000000 335.000000,497.000000 
M170.660950,88.228104 
	C159.823730,93.820442 149.562836,100.311783 140.132294,108.057816 
	C101.714478,139.613358 79.517570,180.204056 74.687248,229.569458 
	C72.363586,253.317047 74.793175,276.958740 82.158974,300.068848 
	C110.691162,389.588226 205.049789,441.790344 295.898224,417.933594 
	C387.025452,394.003601 443.828094,303.604919 425.338135,211.374512 
	C408.496826,127.367851 334.236633,69.726944 255.183243,69.104393 
	C225.601822,68.871437 197.681671,74.522728 170.660950,88.228104 
z"/>
<path fill="#000000" opacity="1.000000" stroke="none" 
	d="
M155.228210,342.656128 
	C161.196091,342.663055 166.695663,342.605621 172.192612,342.699951 
	C175.452347,342.755890 178.282089,343.677368 178.292374,347.692749 
	C178.303040,351.860321 175.404434,352.375275 172.119553,352.372589 
	C154.291077,352.357971 136.462540,352.346863 118.634186,352.392853 
	C115.338470,352.401337 112.293900,351.921814 112.253006,347.889282 
	C112.211388,343.785156 115.213745,342.700165 118.741646,342.676147 
	C123.573463,342.643250 128.411789,342.499908 133.235641,342.693970 
	C137.150696,342.851471 138.620560,341.147369 138.605240,337.373291 
	C138.511246,314.213409 138.782120,291.048401 138.395096,267.894073 
	C137.776825,230.903076 138.926071,193.921249 138.570938,156.934204 
	C138.449890,144.327682 138.542023,144.345764 126.202759,144.245621 
	C124.216888,144.229523 122.162903,144.228119 120.266525,143.734940 
	C118.022850,143.151459 116.576180,141.597931 116.659714,138.988922 
	C116.742416,136.405823 118.118019,134.954239 120.518440,134.513321 
	C122.308426,134.184494 124.151062,133.997299 125.970436,133.995956 
	C144.132095,133.982498 162.295013,134.148712 180.454819,133.974884 
	C186.789810,133.914230 190.696854,135.869370 193.570038,142.101608 
	C214.486908,187.472214 235.800751,232.659836 257.001404,277.899536 
	C258.179626,280.413757 259.466736,282.876953 261.360565,286.686188 
	C264.762146,277.942047 267.739410,270.449097 270.598846,262.911438 
	C285.773132,222.911270 300.901825,182.893814 316.085663,142.897278 
	C319.298859,134.433228 319.806732,134.081024 328.837830,134.042404 
	C344.833252,133.974014 360.829102,133.996628 376.824677,134.031006 
	C378.814026,134.035278 380.810028,134.282791 382.789917,134.524216 
	C385.537384,134.859192 386.979919,136.658798 387.047729,139.247864 
	C387.119385,141.984055 385.274872,143.641678 382.747223,143.946747 
	C379.620331,144.324097 376.432220,144.271820 373.270844,144.265060 
	C369.915894,144.257904 368.370026,145.871216 368.428558,149.167053 
	C368.449249,150.332886 368.415131,151.499603 368.414948,152.665909 
	C368.406189,213.482834 368.397736,274.299744 368.391357,335.116669 
	C368.390564,342.639160 368.395966,342.632202 375.891602,342.659546 
	C378.890106,342.670471 381.899658,342.570099 384.883759,342.793335 
	C387.875641,343.017151 390.057678,344.669678 390.061127,347.815155 
	C390.064728,351.106934 387.790375,352.377411 384.700562,352.375763 
	C358.874359,352.361938 333.048157,352.353119 307.221954,352.329132 
	C304.173767,352.326294 301.952301,351.105865 301.799255,347.776855 
	C301.640594,344.324829 304.163696,343.166138 306.954224,342.828064 
	C309.585388,342.509247 312.280060,342.584045 314.940674,342.671936 
	C318.383575,342.785645 319.669586,341.182526 319.649506,337.827606 
	C319.567719,324.165131 319.564728,310.501617 319.643341,296.839111 
	C319.663147,293.393646 318.027588,291.977844 314.801758,291.976318 
	C301.306396,291.969910 287.810944,291.995544 274.315674,291.956238 
	C270.661591,291.945618 269.690521,294.539581 268.658295,297.279877 
	C262.380219,313.946533 256.062012,330.598053 249.752121,347.252686 
	C249.162460,348.809082 248.572006,350.366852 247.920029,351.897614 
	C246.937744,354.203888 246.052719,356.821228 243.065292,357.015350 
	C239.847321,357.224457 238.542328,354.735077 237.375122,352.241425 
	C228.762329,333.840454 220.126175,315.450470 211.517166,297.047729 
	C192.041718,255.416718 172.580338,213.779114 153.099701,172.150528 
	C152.268280,170.373871 151.301270,168.660645 149.820068,165.804611 
	C148.329895,169.871872 148.444077,172.963638 148.459091,175.997772 
	C148.561386,196.656540 148.834564,217.315201 148.813736,237.973663 
	C148.780807,270.629486 148.625290,303.285645 148.348190,335.940186 
	C148.307785,340.701935 149.468567,343.416748 155.228210,342.656128 
M358.510162,238.234375 
	C358.313110,215.261658 357.834473,192.289963 358.447632,169.315323 
	C358.607452,163.326492 358.581238,157.329636 358.501190,151.338333 
	C358.421814,145.399994 357.311798,144.333649 351.501587,144.267273 
	C347.339569,144.219742 343.176636,144.250565 339.014130,144.249023 
	C330.071228,144.245728 330.061584,144.246414 330.060516,152.969376 
	C330.053162,213.575546 330.050171,274.181702 330.045776,334.787872 
	C330.045746,335.453857 330.090057,336.123230 330.039246,336.785309 
	C329.719604,340.950226 331.350037,342.966919 335.803284,342.709808 
	C340.283936,342.451111 344.791046,342.651001 349.286560,342.649597 
	C358.446777,342.646790 358.468079,342.572876 358.555298,333.569824 
	C358.860168,302.104858 357.549896,270.641022 358.510162,238.234375 
M237.217316,260.202789 
	C233.389694,252.065277 229.544403,243.936020 225.737640,235.788757 
	C212.343826,207.123154 198.904984,178.478256 185.644562,149.751022 
	C183.791275,145.736084 181.458069,143.863998 176.888916,144.167908 
	C171.248550,144.543045 165.564255,144.237991 159.899139,144.265747 
	C152.806549,144.300507 152.179230,145.274841 155.230453,151.810867 
	C183.057327,211.418808 210.896912,271.020844 238.770538,330.606934 
	C239.583282,332.344391 239.997070,334.428986 241.925262,335.518951 
	C243.714813,334.669647 243.893738,332.842804 244.461258,331.376038 
	C247.765244,322.836884 250.825150,314.201294 254.243851,305.709503 
	C255.741760,301.988770 255.419952,298.790619 253.701752,295.242523 
	C248.186081,283.852631 242.915756,272.343964 237.217316,260.202789 
M319.622253,182.504074 
	C319.622253,177.404556 319.622253,172.305038 319.622253,166.788498 
	C317.453003,168.049179 317.136353,169.765472 316.585541,171.214066 
	C302.993774,206.960022 289.443665,242.721817 275.908447,278.489258 
	C273.769745,284.140961 274.138367,284.629150 280.402954,284.644135 
	C291.221527,284.670044 302.040192,284.667297 312.858795,284.645142 
	C319.333923,284.631897 319.615448,284.351593 319.617615,277.874115 
	C319.628113,246.416885 319.622009,214.959656 319.622253,182.504074 
z"/>
</svg>